<svg xmlns="http://www.w3.org/2000/svg" xmlns:xlink="http://www.w3.org/1999/xlink" viewBox="4 7.5 485 168" width="485" height="168">
<style>.ink{fill:#000;stroke:#000}.ink-line{stroke:none}@media (prefers-color-scheme:dark){.ink{fill:#fff;stroke:#fff}}</style>
<svg x="6" y="10.0" width="100" height="90" viewBox="0.000 0.000 660.179 580.218" preserveAspectRatio="xMidYMid meet" overflow="visible"><defs><style>.s0-a { fill: rgb(255, 223, 0); }.s0-b { fill: rgb(218, 37, 29); }</style></defs><g><path class="s0-a" d="M31.961 579.11a31 31 0 0 1-26.845-46.5L303.153 16.39a31 31 0 0 1 53.694.001l298.039 516.22a31 31 0 0 1-26.848 46.5z" transform="translate(0.08956 0.10891)"/><path d="M330 1.891a29.72 29.72 0 0 1 25.98 15.001L654.02 533.11a30 30 0 0 1-25.982 44.999H31.962A30 30 0 0 1 5.98 533.108L304.02 16.89A29.72 29.72 0 0 1 330 1.892m0-1.999a31.675 31.675 0 0 0-27.713 16.001L4.25 532.11a32 32 0 0 0 27.712 47.999h596.076a32 32 0 0 0 27.713-48.001L357.714 15.89A31.675 31.675 0 0 0 330-.108z" transform="translate(0.08956 0.10891)"/></g><path class="s0-b" d="M567.418 523.219H92.583a10 10 0 0 1-8.66-15.001L321.34 96.999a10 10 0 0 1 17.32 0l237.418 411.219a10 10 0 0 1-8.66 14.999zM330 11.999a19.813 19.813 0 0 0-17.32 10L14.64 538.218a20 20 0 0 0 17.32 29.999h596.08a20 20 0 0 0 17.32-30.001L347.32 21.999A19.813 19.813 0 0 0 330 12z" transform="translate(0.08956 0.10891)"/><path d="M565 510H95l39.84-69H209c20 28 54.62 51 121 51s101-23 121-51h74.16z" transform="translate(0.08956 0.10891)"/></svg>
<svg x="133" y="10" width="100" height="89" viewBox="0.000 0.000 660.179 580.218" preserveAspectRatio="xMidYMid meet" overflow="visible"><defs><style>.s1-a { fill: rgb(255, 255, 255); }.s1-b { fill: rgb(218, 37, 29); }</style></defs><g><path class="s1-a" d="M31.96143,579.10938a31,31,0,0,1-26.84668-46.5L303.15332,16.39111a30.99981,30.99981,0,0,1,53.69336,0L654.88574,532.60938a31,31,0,0,1-26.84765,46.5Z" transform="translate(0.08956 0.10891)"/><path d="M330,1.89109a29.71926,29.71926,0,0,1,25.9808,15l298.03837,516.2178a30,30,0,0,1-25.98072,45H31.96155a30,30,0,0,1-25.98082-45L304.0192,16.89109a29.71926,29.71926,0,0,1,25.9808-15m0-2a31.67452,31.67452,0,0,0-27.71292,16L4.24864,532.10889a32.00008,32.00008,0,0,0,27.71291,48h596.0769a31.99994,31.99994,0,0,0,27.71283-48L357.71292,15.89109A31.67452,31.67452,0,0,0,330-.10891Z" transform="translate(0.08956 0.10891)"/></g><path class="s1-b" d="M567.41753,523.21885H92.58272a10,10,0,0,1-8.66026-15L321.33979,96.99906a10,10,0,0,1,17.32051,0l237.41748,411.2198A10,10,0,0,1,567.41753,523.21885ZM330,11.999A19.81282,19.81282,0,0,0,312.67946,21.999L14.64044,538.21885a20,20,0,0,0,17.3206,30H628.039a20.00012,20.00012,0,0,0,17.32062-30L347.32063,21.999A19.81284,19.81284,0,0,0,330,11.999Z" transform="translate(0.08956 0.10891)"/><g><path d="M433.53,347.09a14.99988,14.99988,0,0,1-4.82,20.08L368,406v76a13,13,0,0,1-26,0V403.13a15.00387,15.00387,0,0,1,6.81-12.57l47.84-31.18-32.2-55.77a15.01505,15.01505,0,0,1,1.16-16.72l7.89-10.11A14.9768,14.9768,0,0,1,385.33,271h43.11l15.01,26H404.61Z" transform="translate(0.08956 0.10891)"/><path d="M444.707,436.12333,412.3913,386.3589l22.42535-14.57217,23.45242,36.12018,39.15876-25.43179L512,404.91111l-52.46046,34.33728A10.6991,10.6991,0,0,1,444.707,436.12333Z" transform="translate(0.08956 0.10891)"/><path d="M325,248c0,15,7,34,22,34s33-21,33-41c0-11-3-24-22-24S325,235,325,248Z" transform="translate(0.08956 0.10891)"/><path d="M356.30435,307.609,337,343l-27.03189-15.94188a14,14,0,0,0-19.11669,4.85618l-.26916.4486a14,14,0,0,0,5.427,19.56139l37.25053,19.8269a14,14,0,0,0,18.58279-5.15552L372,333Z" transform="translate(0.08956 0.10891)"/><polygon points="302.12 471.109 302.09 471.109 302.09 471.059 302.12 471.109"/><path d="M334,445v26H308.046a10,10,0,0,1-8.83456-5.31485L280.08,429.61,299.82,417l16.52,28Z" transform="translate(0.08956 0.10891)"/><path d="M311.01543,263.24526a14,14,0,0,0-19.23423,4.78608l-46.87979,78.133a20,20,0,0,0-.39207,19.89621L262,396l-18.50211,12.61507a20.00015,20.00015,0,0,0-5.72939,5.98265l-39.22184,63.23521a14.3478,14.3478,0,0,0,4.6044,19.73947l.00008,0a14,14,0,0,0,19.26564-4.44435L262,430l33.86289-21.90143a15,15,0,0,0,5.32816-19.18627l-19.47475-39.813a15,15,0,0,1,.86108-14.70926l33.14592-51.49887a14,14,0,0,0-3.96609-19.1986Z" transform="translate(0.08956 0.10891)"/><path d="M221.65841,405.51647l28.45165-19.92279-13.33239-19.03992-17.78822,12.4559-18.13939-24.80041a12,12,0,0,0-17.14952-2.31209l-.71568.56849a12,12,0,0,0-2.27832,16.40287l24.32666,33.82475A12,12,0,0,0,221.65841,405.51647Z" transform="translate(0.08956 0.10891)"/><path d="M207.91022,308.01c0,13.72014,6.40273,31.099,20.12287,31.099s30.1843-19.20819,30.1843-37.50171c0-10.06144-2.744-21.95222-20.12287-21.95222S207.91022,296.11918,207.91022,308.01Z" transform="translate(0.08956 0.10891)"/></g></svg>
<svg x="260" y="8.5" width="100" height="91" viewBox="0.000 0.000 660.179 580.218" preserveAspectRatio="xMidYMid meet" overflow="visible">

<path d="M31.961 579.11a31 31 0 0 1-26.846-46.5L303.153 16.39a31 31 0 0 1 53.694 0L654.886 532.61a31 31 0 0 1-26.848 46.5z" transform="translate(.09 .109)" style="fill:#fff"/><path d="M330.09 2a29.72 29.72 0 0 1 25.98 15L654.11 533.218a30 30 0 0 1-25.981 45H32.051a30 30 0 0 1-25.98-45L304.108 17a29.72 29.72 0 0 1 25.98-15m0-2a31.675 31.675 0 0 0-27.712 16L4.338 532.218a32 32 0 0 0 27.713 48h596.077a32 32 0 0 0 27.713-48L357.802 16A31.675 31.675 0 0 0 330.09 0z"/><path d="M567.418 523.219H92.583a10 10 0 0 1-8.66-15L321.34 96.999a10 10 0 0 1 17.32 0l237.418 411.22a10 10 0 0 1-8.66 15zM330 11.999a19.813 19.813 0 0 0-17.32 10L14.64 538.219a20 20 0 0 0 17.321 30h596.078a20 20 0 0 0 17.32-30L347.322 21.999a19.813 19.813 0 0 0-17.321-10z" transform="translate(.09 .109)" style="fill:#da251d"/><g><path d="M232.09 494.109h80.739s25.26-21 25.26-37-9.258-25.597-51-44c-47.968-21.149-56-21-39-51 0 0-44 13-44 34s61 44 61 61c0 10-15 25-33 37zM442.742 494.109s9.348-9 9.348-19c0-14-20-22-71.047-40.024-33.95-11.987-41.953-14.976-41.953-25.976 0-22 41-32 41-32l-5.224 18.282a11 11 0 0 0 6.672 13.306l69.552 26.412s65 24 64.956 59zM410.485 271.41l-4.973-.523-2.299-33.996a15.001 15.001 0 0 0-13.4-13.907L281.65 211.616a15.001 15.001 0 0 0-15.998 10.817l-9.317 32.775-4.973-.522a10.004 10.004 0 0 0-10.99 8.9l-4.6 43.759a10.004 10.004 0 0 0 8.9 10.99l159.124 16.724a10.004 10.004 0 0 0 10.99-8.9l4.6-43.758a10.004 10.004 0 0 0-8.9-10.991zm-141.223-14.843 6.642-26.833a10.008 10.008 0 0 1 10.756-7.537l96.051 10.096a10.008 10.008 0 0 1 8.955 9.608l.917 27.627zM245.143 323.412l27.847 2.927-1.673 15.912a14 14 0 0 1-15.386 12.46 14 14 0 0 1-12.46-15.387l1.672-15.912zM376.21 339.199l27.848 2.927-1.673 15.912a14 14 0 0 1-15.387 12.46 14 14 0 0 1-12.46-15.387l1.673-15.912z"/></g>
</svg>
<svg x="386" y="10" width="101" height="89" viewBox="0.000 0.000 660.179 580.218" preserveAspectRatio="xMidYMid meet" overflow="visible"><defs><style>.s3-a { fill: rgb(255, 255, 255); }.s3-b { fill: rgb(218, 37, 29); }</style></defs><g><path class="s3-a" d="M31.96143,579.10938a31,31,0,0,1-26.84668-46.5L303.15332,16.39111a30.99981,30.99981,0,0,1,53.69336,0L654.88574,532.60938a31,31,0,0,1-26.84765,46.5Z" transform="translate(0.08956 0.10891)"/><path d="M330,1.89109a29.71926,29.71926,0,0,1,25.9808,15l298.03837,516.2178a30,30,0,0,1-25.98072,45H31.96155a30,30,0,0,1-25.98082-45L304.0192,16.89109a29.71926,29.71926,0,0,1,25.9808-15m0-2a31.67452,31.67452,0,0,0-27.71292,16L4.24864,532.10889a32.00008,32.00008,0,0,0,27.71291,48h596.0769a31.99994,31.99994,0,0,0,27.71283-48L357.71292,15.89109A31.67452,31.67452,0,0,0,330-.10891Z" transform="translate(0.08956 0.10891)"/></g><path class="s3-b" d="M567.41753,523.21885H92.58272a10,10,0,0,1-8.66026-15L321.33979,96.99906a10,10,0,0,1,17.32051,0l237.41748,411.2198A10,10,0,0,1,567.41753,523.21885ZM330,11.999A19.81282,19.81282,0,0,0,312.67946,21.999L14.64044,538.21885a20,20,0,0,0,17.3206,30H628.039a20.00012,20.00012,0,0,0,17.32062-30L347.32063,21.999A19.81284,19.81284,0,0,0,330,11.999Z" transform="translate(0.08956 0.10891)"/><path d="M236.19873,504H558L409.4111,246.63647C388.24576,261.4986,375.00192,282.77338,372.19873,312.5c-4.587,48.79348-28.3587,62.81824-41,85.21738-10.06586,23.52984-24.75592,39.29632-42.56522,49.82611C252.63351,470.63043,240.30238,490.0386,236.19873,504Z" transform="translate(0.08956 0.10891)"/><circle cx="222.08956" cy="451.10891" r="32"/><circle cx="257.08956" cy="380.60891" r="14.5"/><circle cx="284.58956" cy="416.10891" r="23"/><circle cx="315.08956" cy="343.60891" r="18.5"/><circle cx="349.58956" cy="320.10891" r="14"/><circle cx="363.08956" cy="266.10891" r="12.5"/></svg>
<circle class="ink" cx="56.5" cy="145.5" r="25.4" style="fill:none" stroke-width="4.3"/>
<text class="ink" x="56.5" y="145.5" style="stroke:none" font-family="Arial, Helvetica, sans-serif" font-size="33.0" font-weight="bold" text-anchor="middle" dominant-baseline="central">1</text>
<circle class="ink" cx="182.5" cy="145.5" r="25.4" style="fill:none" stroke-width="4.3"/>
<text class="ink" x="182.5" y="145.5" style="stroke:none" font-family="Arial, Helvetica, sans-serif" font-size="33.0" font-weight="bold" text-anchor="middle" dominant-baseline="central">2</text>
<circle class="ink" cx="309.5" cy="145.5" r="25.4" style="fill:none" stroke-width="4.3"/>
<text class="ink" x="309.5" y="145.5" style="stroke:none" font-family="Arial, Helvetica, sans-serif" font-size="33.0" font-weight="bold" text-anchor="middle" dominant-baseline="central">3</text>
<circle class="ink" cx="436.5" cy="145.5" r="25.4" style="fill:none" stroke-width="4.3"/>
<text class="ink" x="436.5" y="145.5" style="stroke:none" font-family="Arial, Helvetica, sans-serif" font-size="33.0" font-weight="bold" text-anchor="middle" dominant-baseline="central">4</text>
</svg>