<svg xmlns="http://www.w3.org/2000/svg" xmlns:xlink="http://www.w3.org/1999/xlink" viewBox="4 7 176 106" width="176" height="106">
<style>.ink{fill:#000;stroke:#000}.ink-line{stroke:none}@media (prefers-color-scheme:dark){.ink{fill:#fff;stroke:#fff}}</style>
<svg x="6" y="9" width="52" height="102" viewBox="0.000 0.000 304.000 604.000" preserveAspectRatio="xMidYMid meet" overflow="visible">

<defs><style>.s0-b{fill:#da251d}</style></defs><rect x="1" y="1" width="302" height="602" rx="46" style="fill:#fff"/><path d="M257 2a45 45 0 0 1 45 45v510a45 45 0 0 1-45 45H47a45 45 0 0 1-45-45V47A45 45 0 0 1 47 2h210m0-2H47A47.053 47.053 0 0 0 0 47v510a47.053 47.053 0 0 0 47 47h210a47.053 47.053 0 0 0 47-47V47a47.053 47.053 0 0 0-47-47z"/><path d="M257 22a25.028 25.028 0 0 1 25 25v510a25.028 25.028 0 0 1-25 25H47a25.028 25.028 0 0 1-25-25V47a25.028 25.028 0 0 1 25-25h210m0-10H47a35 35 0 0 0-35 35v510a35 35 0 0 0 35 35h210a35 35 0 0 0 35-35V47a35 35 0 0 0-35-35z"/><g><path class="s0-b" d="M282 137.44v60L22 347.56v-60l260-150.12zM282 252.44v60L22 462.56v-60l260-150.12z"/></g>
</svg>
<svg x="126" y="9" width="52" height="101" viewBox="0.000 0.000 304.000 604.000" preserveAspectRatio="xMidYMid meet" overflow="visible">

<defs><style>.s1-b{fill:#da251d}</style></defs><rect x="1" y="1" width="302" height="602" rx="46" style="fill:#fff"/><path d="M257 2a45 45 0 0 1 45 45v510a45 45 0 0 1-45 45H47a45 45 0 0 1-45-45V47A45 45 0 0 1 47 2h210m0-2H47A47.053 47.053 0 0 0 0 47v510a47.053 47.053 0 0 0 47 47h210a47.053 47.053 0 0 0 47-47V47a47.053 47.053 0 0 0-47-47z"/><path d="M257 22a25.028 25.028 0 0 1 25 25v510a25.028 25.028 0 0 1-25 25H47a25.028 25.028 0 0 1-25-25V47a25.028 25.028 0 0 1 25-25h210m0-10H47a35 35 0 0 0-35 35v510a35 35 0 0 0 35 35h210a35 35 0 0 0 35-35V47a35 35 0 0 0-35-35z"/><g><path class="s1-b" d="M22 137.44v60l260 150.12v-60L22 137.44zM22 252.44v60l260 150.12v-60L22 252.44z"/></g>
</svg>
</svg>