<svg xmlns="http://www.w3.org/2000/svg" xmlns:xlink="http://www.w3.org/1999/xlink" viewBox="180 1108 4990 1386" width="4990" height="1386">
<style>.ink{fill:#000;stroke:#000}.ink-line{stroke:none}@media (prefers-color-scheme:dark){.ink{fill:#fff;stroke:#fff}}</style>
<svg x="182" y="1110" width="907" height="908" viewBox="0.000 0.000 600.000 600.000" preserveAspectRatio="xMidYMid meet" overflow="visible"><rect x=".5" y=".5" width="599" height="599" rx="44.5" fill="#fff"/><path d="M555 1a44.05 44.05 0 0 1 44 44v510a44.05 44.05 0 0 1-44 44H45a44.05 44.05 0 0 1-44-44V45A44.05 44.05 0 0 1 45 1h510m0-1H45A45 45 0 0 0 0 45v510a45 45 0 0 0 45 45h510a45 45 0 0 0 45-45V45a45 45 0 0 0-45-45z"/><rect x="10" y="10" width="580" height="580" rx="35" fill="#005ca0"/><path d="M454 300h-62.5v290h-61V300H268l93-166 93 166zM301.5 135L223 276l-78.5-141H198V10h50v125h53.5z" fill="#fff"/><path d="M291.5 140L223 265l-68.5-125H203V10h40v130h48.5z" fill="#d92a22"/></svg>
<svg x="1198" y="1110" width="908" height="908" viewBox="0.000 0.000 604.000 604.000" preserveAspectRatio="xMidYMid meet" overflow="visible">

<defs><style>.s1-a{fill:#fff}</style></defs><rect class="s1-a" x="1" y="1" width="602" height="602" rx="46"/><path d="M557 2a45 45 0 0 1 45 45v510a45 45 0 0 1-45 45H47a45 45 0 0 1-45-45V47A45 45 0 0 1 47 2h510m0-2H47A47.053 47.053 0 0 0 0 47v510a47.053 47.053 0 0 0 47 47h510a47.053 47.053 0 0 0 47-47V47a47.053 47.053 0 0 0-47-47z"/><rect x="12" y="12" width="580" height="580" rx="35" style="fill:#005da2"/><path class="s1-a" d="M462 349H362v243H242V349H142L302 71.87 462 349z"/>
</svg>
<svg x="2215" y="1110" width="913" height="908" viewBox="0.000 0.000 700.000 700.000" preserveAspectRatio="xMidYMid meet" overflow="visible">
  <defs>
    <style>
      .s2-cls-1 {
        fill: #fff;
      }

      .s2-cls-2 {
        fill: #055c9d;
      }
    </style>
  </defs>
  <g>
    <rect class="s2-cls-1" x="0.5" y="0.5" width="699" height="699" rx="44.5"/>
    <path d="M655,1a44.04978,44.04978,0,0,1,44,44V655a44.04978,44.04978,0,0,1-44,44H45A44.04978,44.04978,0,0,1,1,655V45A44.04977,44.04977,0,0,1,45,1H655m0-1H45A45,45,0,0,0,0,45V655a45,45,0,0,0,45,45H655a45,45,0,0,0,45-45V45A45,45,0,0,0,655,0Z"/>
  </g>
  <rect class="s2-cls-2" x="10" y="10" width="680" height="680" rx="35"/>
  <rect class="s2-cls-1" x="340" y="10" width="20" height="680"/>
  <polygon class="s2-cls-1" points="271 488 186 638 101 488 156 488 156 383 216 383 216 488 271 488"/>
  <polygon class="s2-cls-1" points="630 248 560 248 560 690 490 690 490 248 420 248 525 58 630 248"/>
  <g>
    <path class="s2-cls-1" d="M271,63H87A19.9945,19.9945,0,0,0,67,83V264a19.9945,19.9945,0,0,0,20,20H271a19.9945,19.9945,0,0,0,20-20V83A19.9945,19.9945,0,0,0,271,63ZM107,257a20,20,0,1,1,20-20A19.9945,19.9945,0,0,1,107,257Zm145,0a20,20,0,1,1,20-20A19.9945,19.9945,0,0,1,252,257Zm21-101a10.00366,10.00366,0,0,1-10,10H95a10.00366,10.00366,0,0,1-10-10V98A10.00362,10.00362,0,0,1,95,88H263a10.00362,10.00362,0,0,1,10,10Z"/>
    <path class="s2-cls-1" d="M78,294h40a0,0,0,0,1,0,0v25a20,20,0,0,1-20,20h0a20,20,0,0,1-20-20V294a0,0,0,0,1,0,0Z"/>
    <path class="s2-cls-1" d="M244,294h40a0,0,0,0,1,0,0v25a20,20,0,0,1-20,20h0a20,20,0,0,1-20-20V294a0,0,0,0,1,0,0Z"/>
  </g>
</svg>
<svg x="3237" y="1110" width="912" height="908" viewBox="0.000 0.000 700.000 700.000" preserveAspectRatio="xMidYMid meet" overflow="visible">
  <defs>
    <style>
      .s3-cls-1 {
        fill: #fff;
      }

      .s3-cls-2 {
        fill: #005da2;
      }
    </style>
  </defs>
  <g>
    <rect class="s3-cls-1" x="0.5" y="0.5" width="699" height="699" rx="44.5"/>
    <path d="M655,1a44.04978,44.04978,0,0,1,44,44V655a44.04978,44.04978,0,0,1-44,44H45A44.04978,44.04978,0,0,1,1,655V45A44.04977,44.04977,0,0,1,45,1H655m0-1H45A45,45,0,0,0,0,45V655a45,45,0,0,0,45,45H655a45,45,0,0,0,45-45V45A45,45,0,0,0,655,0Z"/>
  </g>
  <rect class="s3-cls-2" x="20" y="20" width="660" height="660" rx="35"/>
  <polygon class="s3-cls-1" points="450 265 383 265 383 680 315 680 315 265 248 265 349 85 450 265"/>
  <g>
    <rect class="s3-cls-1" x="166" y="615" width="22" height="65"/>
    <rect class="s3-cls-1" x="166" y="516" width="22" height="70"/>
    <rect class="s3-cls-1" x="166" y="418" width="22" height="70"/>
    <rect class="s3-cls-1" x="166" y="322" width="22" height="70"/>
  </g>
  <g>
    <rect class="s3-cls-1" x="506" y="615" width="22" height="65"/>
    <rect class="s3-cls-1" x="506" y="516" width="22" height="70"/>
    <rect class="s3-cls-1" x="506" y="418" width="22" height="70"/>
    <rect class="s3-cls-1" x="506" y="322" width="22" height="70"/>
  </g>
</svg>
<svg x="4258" y="1110" width="912" height="908" viewBox="0.000 0.000 600.000 600.000" preserveAspectRatio="xMidYMid meet" overflow="visible">
  <defs>
    <style>
      .s4-cls-1 {
        fill: #fff;
      }

      .s4-cls-2 {
        fill: #005da2;
      }
    </style>
  </defs>
  <g>
    <rect class="s4-cls-1" x="0.5" y="0.5" width="599" height="599" rx="39.5"/>
    <path d="M560,1a39.04414,39.04414,0,0,1,39,39V560a39.04414,39.04414,0,0,1-39,39H40A39.04414,39.04414,0,0,1,1,560V40A39.04415,39.04415,0,0,1,40,1H560m0-1H40A40,40,0,0,0,0,40V560a40,40,0,0,0,40,40H560a40,40,0,0,0,40-40V40A40,40,0,0,0,560,0Z"/>
  </g>
  <rect class="s4-cls-2" x="15" y="15" width="570" height="570" rx="25"/>
  <path class="s4-cls-1" d="M332.5,395H389c-.35,0-89,152-89,152L211,395h56.5V205H211c.35,0,89-152,89-152l89,152H332.5Z"/>
</svg>
<circle class="ink" cx="639.0" cy="2339.0" r="141.1" style="fill:none" stroke-width="23.7"/>
<text class="ink" x="639.0" y="2339.0" style="stroke:none" font-family="Arial, Helvetica, sans-serif" font-size="183.6" font-weight="bold" text-anchor="middle" dominant-baseline="central">1</text>
<circle class="ink" cx="1659.0" cy="2339.0" r="141.1" style="fill:none" stroke-width="23.7"/>
<text class="ink" x="1659.0" y="2339.0" style="stroke:none" font-family="Arial, Helvetica, sans-serif" font-size="183.6" font-weight="bold" text-anchor="middle" dominant-baseline="central">2</text>
<circle class="ink" cx="2691.0" cy="2339.0" r="141.1" style="fill:none" stroke-width="23.7"/>
<text class="ink" x="2691.0" y="2339.0" style="stroke:none" font-family="Arial, Helvetica, sans-serif" font-size="183.6" font-weight="bold" text-anchor="middle" dominant-baseline="central">3</text>
<circle class="ink" cx="3699.0" cy="2339.0" r="141.1" style="fill:none" stroke-width="23.7"/>
<text class="ink" x="3699.0" y="2339.0" style="stroke:none" font-family="Arial, Helvetica, sans-serif" font-size="183.6" font-weight="bold" text-anchor="middle" dominant-baseline="central">4</text>
<circle class="ink" cx="4707.0" cy="2339.0" r="141.1" style="fill:none" stroke-width="23.7"/>
<text class="ink" x="4707.0" y="2339.0" style="stroke:none" font-family="Arial, Helvetica, sans-serif" font-size="183.6" font-weight="bold" text-anchor="middle" dominant-baseline="central">5</text>
</svg>