<svg xmlns="http://www.w3.org/2000/svg" xmlns:xlink="http://www.w3.org/1999/xlink" viewBox="0 6 478 172" width="478" height="172">
<style>.ink{fill:#000;stroke:#000}.ink-line{stroke:none}@media (prefers-color-scheme:dark){.ink{fill:#fff;stroke:#fff}}</style>
<svg x="2" y="8" width="94" height="93" viewBox="0.000 0.000 604.000 604.000" preserveAspectRatio="xMidYMid meet" overflow="visible"><defs><style>.s0-a { fill: rgb(255, 255, 255); fill-rule: evenodd; }.s0-b { fill: rgb(218, 37, 29); }</style></defs><g><path class="s0-a" d="M302,603A300.99962,300.99962,0,0,1,89.16113,89.16113,300.99962,300.99962,0,1,1,514.83887,514.83887,299.0265,299.0265,0,0,1,302,603Z"/><path d="M302,2A299.99973,299.99973,0,0,1,514.13184,514.13184,299.99973,299.99973,0,1,1,89.86816,89.86816,298.03491,298.03491,0,0,1,302,2m0-2A301.99976,301.99976,0,0,0,88.45393,515.54608,301.99976,301.99976,0,1,0,515.54608,88.45393,300.02142,300.02142,0,0,0,302,0Z"/></g><path class="s0-b" d="M302,12C141.84,12,12,141.84,12,302S141.84,592,302,592,592,462.16,592,302,462.16,12,302,12Zm0,530C169.45,542,62,434.55,62,302S169.45,62,302,62,542,169.45,542,302,434.55,542,302,542Z"/><g><path d="M161.53247,381.07792h54.85714a0,0,0,0,1,0,0v38.23379a27.42854,27.42854,0,0,1-27.42854,27.42854H188.961a27.42854,27.42854,0,0,1-27.42854-27.42854V381.07792A0,0,0,0,1,161.53247,381.07792Z"/><path d="M389.27273,381.07792h54.85714a0,0,0,0,1,0,0v38.23379a27.42854,27.42854,0,0,1-27.42854,27.42854h-.00005a27.42854,27.42854,0,0,1-27.42854-27.42854V381.07792a0,0,0,0,1,0,0Z"/><path d="M439.55844,256.81818l-28.30961-85.60207a29.08946,29.08946,0,0,0-27.61972-19.95637H215.99067a29.09255,29.09255,0,0,0-28.06027,21.4026c-8.44471,30.86962-23.48884,84.15584-23.48884,84.15584A22.44335,22.44335,0,0,0,142,279.25974v68.15584a22.44338,22.44338,0,0,0,22.44156,22.44156H439.55844A22.44338,22.44338,0,0,0,462,347.41558V279.25974A22.44335,22.44335,0,0,0,439.55844,256.81818ZM203.95531,183.54231a16.61591,16.61591,0,0,1,16.05818-12.33452H381.12728a16.62638,16.62638,0,0,1,15.90027,11.761l22.58284,73.84938H184.38961ZM188.961,330.79221a27.42858,27.42858,0,1,1,27.42857-27.42857A27.42369,27.42369,0,0,1,188.961,330.79221Zm226.90909,0a27.42858,27.42858,0,1,1,27.42857-27.42857A27.42369,27.42369,0,0,1,415.87013,330.79221Z"/></g></svg>
<svg x="129" y="8" width="93" height="93" viewBox="0.000 0.000 600.000 600.000" preserveAspectRatio="xMidYMid meet" overflow="visible">
  <defs>
    <style>
      .s1-cls-1 {
        fill: #fff;
      }

      .s1-cls-2 {
        fill: #da251d;
      }

      .s1-cls-3 {
        fill: #fff500;
      }

      .s1-cls-4 {
        fill: #005ca0;
      }
    </style>
  </defs>
  <g>
    <path class="s1-cls-1" d="M301,601A298.99982,298.99982,0,0,1,89.5752,90.5752,298.99982,298.99982,0,1,1,512.4248,513.4248,297.04178,297.04178,0,0,1,301,601Z" transform="translate(-1 -2)"/>
    <path d="M301,4A298.07913,298.07913,0,0,1,416.99442,576.58252,298.07768,298.07768,0,0,1,185.00558,27.4175,296.13159,296.13159,0,0,1,301,4m0-2C135.31459,2,1,136.31459,1,302S135.31459,602,301,602,601,467.68542,601,302,466.68542,2,301,2Z" transform="translate(-1 -2)"/>
  </g>
  <path class="s1-cls-2" d="M300,60a240.07656,240.07656,0,0,1,93.40341,461.16022A240.07514,240.07514,0,0,1,206.5966,78.8398,238.45013,238.45013,0,0,1,300,60m0-50C139.8374,10,10,139.8374,10,300S139.8374,590,300,590,590,460.1626,590,300,460.1626,10,300,10Z" transform="translate(-1 -2)"/>
  <g>
    <g>
      <g>
        <ellipse class="s1-cls-3" cx="304" cy="180" rx="130" ry="73"/>
        <path d="M305,111c34.57687,0,67.02319,7.61591,91.362,21.44479C419.98837,145.86888,433,163.46791,433,182s-13.01163,36.13112-36.638,49.55521C372.02319,245.38408,339.57687,253,305,253s-67.02321-7.61592-91.36205-21.44479C190.01163,218.13112,177,200.53209,177,182s13.01163-36.13112,36.63795-49.55521C237.97679,118.61591,270.42313,111,305,111m0-4c-72.90158,0-132,33.57863-132,75s59.09842,75,132,75,132-33.57863,132-75-59.09842-75-132-75Z" transform="translate(-1 -2)"/>
      </g>
      <polygon points="441 280 167 280 167 247 205 247 227 261 381 261 403 247 441 247 441 280"/>
      <rect x="170" y="290" width="29" height="93"/>
      <rect x="408" y="290" width="29" height="93"/>
      <path d="M399,292v93H370V350H329.34A26.51366,26.51366,0,0,1,280.66,350H239v35H210V292h29v36h42.12a26.50848,26.50848,0,0,1,47.76,0H370V292Z" transform="translate(-1 -2)"/>
    </g>
    <g>
      <path class="s1-cls-4" d="M454,420v15c-18-13-31-20-48-20-23,0-32,6-45,11-18,9-39,13-57,13s-39-4-57-13c-13-5-22-11-45-11-17,0-30,7-48,20V420c15-10.85,29-19,48-19s29.66,4.87,46,12c24,10,38,11,56,11s32-1,56-11c16.34-7.13,27-12,46-12S439,409.15,454,420Z" transform="translate(-1 -2)"/>
      <path class="s1-cls-4" d="M454,449v15c-18-13-31-20-48-20-23,0-32,6-45,11-18,9-39,13-57,13s-39-4-57-13c-13-5-22-11-45-11-17,0-30,7-48,20V449c15-10.85,29-19,48-19s29.66,4.87,46,12c24,10,38,11,56,11s32-1,56-11c16.34-7.13,27-12,46-12S439,438.15,454,449Z" transform="translate(-1 -2)"/>
    </g>
  </g>
</svg>
<svg x="256" y="8" width="93" height="93" viewBox="0.000 0.000 600.000 600.000" preserveAspectRatio="xMidYMid meet" overflow="visible"><defs><clipPath id="s2-A"><path d="M300 60C167.45 60 60 167.45 60 300s107.45 240 240 240 240-107.45 240-240S432.55 60 300 60zm121.84 334.91A17.101 17.101 0 0 1 404.75 412h-209.5a17.101 17.101 0 0 1-17.09-17.09v-51.9a17.095 17.095 0 0 1 17.09-17.09l17.89-64.08a22.157 22.157 0 0 1 21.37-16.3h127.65a22.149 22.149 0 0 1 21.03 15.2l21.56 65.18a17.095 17.095 0 0 1 17.09 17.09z" fill="none"/></clipPath><path id="s2-B" d="M193.038 420.54h41.772a0 0 0 0 1 0 0v29.114a20.886 20.886 0 0 1-20.886 20.886h0a20.886 20.886 0 0 1-20.886-20.886V420.54a0 0 0 0 1 0 0z"/></defs><path d="M300 599A299 299 0 0 1 88.575 88.575a299 299 0 1 1 422.85 422.85A297.042 297.042 0 0 1 300 599z" fill="#fff"/><path d="M300 2a298.079 298.079 0 0 1 115.994 572.583A298.078 298.078 0 0 1 184.006 25.418 296.132 296.132 0 0 1 300 2m0-2C134.315 0 0 134.315 0 300s134.315 300 300 300 300-134.315 300-300S465.685 0 300 0z"/><path d="M300 60a240.077 240.077 0 0 1 93.403 461.16A240.075 240.075 0 0 1 206.597 78.84 238.45 238.45 0 0 1 300 60m0-50C139.837 10 10 139.837 10 300s129.837 290 290 290 290-129.837 290-290S460.163 10 300 10z" fill="#da251d"/><use xlink:href="#s2-B"/><use xlink:href="#s2-B" x="173.418"/><path d="M404.747 325.919l-21.557-65.184a22.151 22.151 0 0 0-21.032-15.196H234.506a22.153 22.153 0 0 0-21.367 16.297l-17.886 64.082a17.09 17.09 0 0 0-17.089 17.089v51.899a17.09 17.09 0 0 0 17.089 17.089h209.494a17.09 17.09 0 0 0 17.089-17.089v-51.899a17.09 17.09 0 0 0-17.089-17.089zm-179.405-55.797a12.653 12.653 0 0 1 12.228-9.392h122.684a12.661 12.661 0 0 1 12.108 8.956l17.196 56.234H210.443zm-11.418 112.127a20.886 20.886 0 1 1 20.886-20.886 20.882 20.882 0 0 1-20.886 20.886zm172.785 0a20.886 20.886 0 1 1 20.886-20.886 20.882 20.882 0 0 1-20.886 20.886z"/><g clip-path="url(#s2-A)"><path d="M226.605 385L145.49 252.401l55.762-11.766-14.912-58.818 57.942 31.775-5.731-80.238 38.669 29.422 18.171-43.263 61.94 107.926 64.076-54.79 8.846 69.883 28.676-1.687L411.751 385H226.605z" fill="#fff500"/><path d="M296.781 142.026l45.872 79.929 12.008 20.924 18.336-15.678 40.817-34.902 5.343 42.213 2.348 18.552 18.668-1.098 4.683-.275L404.502 375H232.211L161.41 259.262l31.719-6.693 20.375-4.299-5.117-20.185-6.706-26.45 21.702 11.901 32.181 17.647-2.615-36.609-2.848-39.867 10.788 8.208 20.551 15.636 9.999-23.808 5.342-12.718M294 97l-21 50-46-35 6 84-62-34 18 71-59.43 12.54L221 395h198l54-165-34 2-10-79-69 59-66-115z" fill="#da251d"/></g></svg>
<svg x="382" y="8" width="94" height="93" viewBox="0.000 0.000 604.000 604.000" preserveAspectRatio="xMidYMid meet" overflow="visible"><path d="M300 601A301 301 0 0 1 87.161 87.161 301 301 0 1 1 512.84 512.84 299.026 299.026 0 0 1 300 601z" transform="translate(2 2)" style="fill:#fff;fill-rule:evenodd"/><path d="M302 2a300 300 0 0 1 212.132 512.132A300 300 0 1 1 89.868 89.868 298.035 298.035 0 0 1 302 2m0-2A302 302 0 0 0 88.454 515.546 302 302 0 1 0 515.546 88.454 300.021 300.021 0 0 0 302 0z"/><path d="M299.166 590c-160.16 0-290-129.84-290-290s129.84-290 290-290 290 129.84 290 290-129.84 290-290 290zm0-530c-132.55 0-240 107.45-240 240s107.45 240 240 240 240-107.45 240-240-107.45-240-240-240z" transform="translate(2 2)" style="fill:#da251d"/><path d="M229.402 420.646h-46.107l81.781-191.424H149.977v-36.075h161.88v35.1zM330.578 286.642h119.336v28.946H407.73v105.058h-34.968V315.588h-42.184z"/></svg>
<circle class="ink" cx="48.5" cy="147.5" r="25.4" style="fill:none" stroke-width="4.3"/>
<text class="ink" x="48.5" y="147.5" style="stroke:none" font-family="Arial, Helvetica, sans-serif" font-size="33.0" font-weight="bold" text-anchor="middle" dominant-baseline="central">1</text>
<circle class="ink" cx="175.0" cy="147.5" r="24.9" style="fill:none" stroke-width="4.2"/>
<text class="ink" x="175.0" y="147.5" style="stroke:none" font-family="Arial, Helvetica, sans-serif" font-size="32.4" font-weight="bold" text-anchor="middle" dominant-baseline="central">2</text>
<circle class="ink" cx="301.5" cy="147.5" r="25.4" style="fill:none" stroke-width="4.3"/>
<text class="ink" x="301.5" y="147.5" style="stroke:none" font-family="Arial, Helvetica, sans-serif" font-size="33.0" font-weight="bold" text-anchor="middle" dominant-baseline="central">3</text>
<circle class="ink" cx="428.5" cy="147.5" r="25.4" style="fill:none" stroke-width="4.3"/>
<text class="ink" x="428.5" y="147.5" style="stroke:none" font-family="Arial, Helvetica, sans-serif" font-size="33.0" font-weight="bold" text-anchor="middle" dominant-baseline="central">4</text>
</svg>